<?xml version="1.0" encoding="utf-8"?>
<!-- Generator: Adobe Illustrator 16.0.0, SVG Export Plug-In . SVG Version: 6.00 Build 0)  -->
<!DOCTYPE svg PUBLIC "-//W3C//DTD SVG 1.1//EN" "http://www.w3.org/Graphics/SVG/1.1/DTD/svg11.dtd">
<svg version="1.1" id="Layer_1" xmlns="http://www.w3.org/2000/svg" xmlns:xlink="http://www.w3.org/1999/xlink" x="0px" y="0px"
	 width="305px" height="374.37px" viewBox="0 0 305 374.37" enable-background="new 0 0 305 374.37" xml:space="preserve">
<g>
	<g>
		<defs>
			<rect id="SVGID_1_" x="-442" y="-102.89" width="1190.551" height="841.89"/>
		</defs>
		<clipPath id="SVGID_2_">
			<use xlink:href="#SVGID_1_"  display="none" overflow="visible"/>
		</clipPath>
		<path clip-path="url(#SVGID_2_)" fill="#FFFFFF" d="M153.275,299.802c81.34,0,147.28-65.939,147.28-147.28
			c0-81.34-65.94-147.279-147.28-147.279S5.996,71.182,5.996,152.521C5.996,233.862,71.936,299.802,153.275,299.802"/>
		<circle clip-path="url(#SVGID_2_)" fill="none" stroke="#FB544D" stroke-width="6.5" cx="153.275" cy="152.522" r="147.28"/>
	</g>
	<polygon fill="#933F15" points="110.973,61.851 110.973,98.747 196.935,108.586 196.935,93.221 185.349,68.842 133.758,56.414 	"/>
	<g>
		<defs>
			<path id="SVGID_3_" d="M181.854,211.799c0-0.698,0.867-1.262,1.941-1.262c1.072,0,1.942,0.564,1.942,1.262
				c0,0.697-0.87,1.261-1.942,1.261C182.721,213.06,181.854,212.496,181.854,211.799 M192.047,210.537
				c0-0.697,0.871-1.263,1.943-1.263s1.94,0.566,1.94,1.263c0,0.696-0.868,1.262-1.94,1.262S192.047,211.233,192.047,210.537
				 M181.854,204.691c0-0.696,0.867-1.261,1.941-1.261c1.072,0,1.942,0.565,1.942,1.261c0,0.697-0.87,1.263-1.942,1.263
				C182.721,205.954,181.854,205.388,181.854,204.691 M168.021,202.166c0-0.695,0.869-1.261,1.942-1.261s1.941,0.566,1.941,1.261
				c0,0.698-0.868,1.264-1.941,1.264S168.021,202.864,168.021,202.166 M144.665,201.669c0-0.695,0.869-1.261,1.942-1.261
				c1.073,0,1.941,0.566,1.941,1.261c0,0.698-0.868,1.263-1.941,1.263C145.534,202.932,144.665,202.367,144.665,201.669
				 M104.655,201.246c0-0.698,0.87-1.264,1.943-1.264c1.072,0,1.941,0.566,1.941,1.264c0,0.695-0.869,1.26-1.941,1.26
				C105.525,202.506,104.655,201.941,104.655,201.246 M69.069,200.905c0-0.697,0.87-1.263,1.943-1.263
				c1.072,0,1.942,0.566,1.942,1.263c0,0.698-0.87,1.261-1.942,1.261C69.939,202.166,69.069,201.603,69.069,200.905 M84.023,198.721
				c0-0.698,0.868-1.264,1.941-1.264c1.073,0,1.942,0.566,1.942,1.264c0,0.696-0.869,1.261-1.942,1.261
				C84.891,199.982,84.023,199.417,84.023,198.721 M151.462,198.174c0-0.696,0.869-1.261,1.942-1.261c1.071,0,1.94,0.565,1.94,1.261
				c0,0.697-0.869,1.263-1.94,1.263C152.331,199.437,151.462,198.871,151.462,198.174 M183.795,196.244
				c0-0.697,0.869-1.262,1.942-1.262c1.07,0,1.941,0.565,1.941,1.262c0,0.698-0.871,1.262-1.941,1.262
				C184.664,197.506,183.795,196.942,183.795,196.244 M107.149,193.72c0-0.698,0.87-1.263,1.943-1.263
				c1.072,0,1.942,0.565,1.942,1.263c0,0.697-0.87,1.262-1.942,1.262C108.019,194.982,107.149,194.417,107.149,193.72
				 M61.223,192.457c0-0.696,0.87-1.262,1.942-1.262c1.073,0,1.942,0.566,1.942,1.262c0,0.698-0.869,1.263-1.942,1.263
				C62.093,193.72,61.223,193.155,61.223,192.457 M97.907,192.457c0-0.696,0.87-1.262,1.942-1.262c1.073,0,1.942,0.566,1.942,1.262
				c0,0.698-0.869,1.263-1.942,1.263C98.777,193.72,97.907,193.155,97.907,192.457 M144.665,192.457
				c0-0.696,0.869-1.262,1.942-1.262c1.073,0,1.941,0.566,1.941,1.262c0,0.698-0.868,1.263-1.941,1.263
				C145.534,193.72,144.665,193.155,144.665,192.457 M74.022,191.972c0-0.698,0.87-1.263,1.942-1.263
				c1.072,0,1.942,0.565,1.942,1.263c0,0.697-0.87,1.262-1.942,1.262C74.892,193.234,74.022,192.669,74.022,191.972 M82.76,191.438
				c0-0.697,0.87-1.262,1.942-1.262c1.073,0,1.943,0.565,1.943,1.262c0,0.698-0.87,1.263-1.943,1.263
				C83.63,192.701,82.76,192.136,82.76,191.438 M169.424,190.709c0-0.696,0.869-1.262,1.942-1.262s1.941,0.566,1.941,1.262
				c0,0.698-0.868,1.263-1.941,1.263S169.424,191.407,169.424,190.709 M89.867,185.564c0-0.698,0.869-1.263,1.942-1.263
				c1.072,0,1.941,0.565,1.941,1.263c0,0.697-0.869,1.262-1.941,1.262C90.736,186.826,89.867,186.261,89.867,185.564
				 M156.026,185.564c0-0.698,0.867-1.263,1.94-1.263s1.942,0.565,1.942,1.263c0,0.697-0.869,1.262-1.942,1.262
				S156.026,186.261,156.026,185.564 M105.208,184.871c0-0.698,0.869-1.263,1.941-1.263c1.073,0,1.943,0.565,1.943,1.263
				c0,0.697-0.87,1.264-1.943,1.264C106.077,186.135,105.208,185.568,105.208,184.871 M144.665,183.039
				c0-0.697,0.869-1.262,1.942-1.262c1.073,0,1.941,0.565,1.941,1.262c0,0.698-0.868,1.262-1.941,1.262
				C145.534,184.301,144.665,183.737,144.665,183.039 M97.25,98.747c-23.821,5.567-44.426,19.589-44.426,19.589l-1.281,14.691
				l-9.573,3.264c0,0-38.061,26.15-2.589,52.561h7.296l-2.247,25.761v46.049l46.865,18.165l72.044,8.546l61.302-17.608
				l29.258-31.589l7.281-13.172l8.801-15.309l-1.906,9.483c3.157,3.596,6.33,5.041,9.388,5.041
				c12.464,0.004,23.043-23.974,23.043-23.974c2.292-6.685,3.269-12.202,3.3-16.753v-0.448
				c-0.134-19.515-17.922-20.899-22.959-20.899c-0.832,0-1.313,0.038-1.313,0.038l-3.566,17.735h-19.302l1.118-23.561l17.152-29.646
				l-75.15-17.995c0,0-56.61-11.173-88.343-11.173C105.754,97.543,100.871,97.901,97.25,98.747"/>
		</defs>
		<clipPath id="SVGID_4_">
			<use xlink:href="#SVGID_3_"  overflow="visible"/>
		</clipPath>
		
			<linearGradient id="SVGID_5_" gradientUnits="userSpaceOnUse" x1="-442" y1="739" x2="-441" y2="739" gradientTransform="matrix(279.5443 0 0 -279.5443 123582.8516 206775.7656)">
			<stop  offset="0" style="stop-color:#F2C8BF"/>
			<stop  offset="0.4756" style="stop-color:#F2C8BF"/>
			<stop  offset="0.599" style="stop-color:#F3BDB3"/>
			<stop  offset="0.7739" style="stop-color:#F4B4A9"/>
			<stop  offset="1" style="stop-color:#F4B1A6"/>
		</linearGradient>
		<rect x="3.909" y="97.543" clip-path="url(#SVGID_4_)" fill="url(#SVGID_5_)" width="299.896" height="189.83"/>
	</g>
	<g>
		<defs>
			<rect id="SVGID_6_" x="18.365" y="27.155" width="285.439" height="347.215"/>
		</defs>
		<clipPath id="SVGID_7_">
			<use xlink:href="#SVGID_6_"  overflow="visible"/>
		</clipPath>
		<path clip-path="url(#SVGID_7_)" fill="#F5B1A6" d="M140.75,164.318c0,0-0.357,39.518-18.028,31.556
			c-21.475-9.675,3.398-21.07,3.398-21.07S140.75,167.522,140.75,164.318"/>
		<path clip-path="url(#SVGID_7_)" fill="#D38B84" d="M122.726,194.428c-5.93-2.67-8.315-5.473-8.677-8.131
			c-0.383,3.066,1.676,6.402,8.677,9.556c17.671,7.961,18.028-31.557,18.028-31.557l-0.047,0.185
			C140.41,171.801,138.245,201.42,122.726,194.428"/>
	</g>
	<g>
		<defs>
			<path id="SVGID_8_" d="M82.491,240.506c-0.227-7.41,1.392-20.065,47.707-20.94c46.313-0.873,41.848,14.37,41.751,17.381
				c-0.098,3.009-11.458,24.857-47.188,28.06c-1.953,0.175-3.822,0.258-5.604,0.258h-0.005h-0.005
				C88.319,265.268,82.491,240.506,82.491,240.506 M48.055,171.504c0,0-23.733,47.983-25.633,53.209
				c-1.943,5.34-6.215,11.264,6.213,8.545c0,0-11.042,18.382-10.226,40.909c0.631,17.446,13.399,14.369,15.147,11.652
				c0,0-7.185,33.4,5.048,41.168c12.234,7.767,15.924-2.331,17.09-3.69c0,0,2.589,28.611,23.821,30.035
				c21.231,1.424,23.691-7.637,27.963-14.24c0,0,8.978,18.064,24.006,18.156h0.228c1.042-0.006,2.112-0.099,3.211-0.291
				c0,0,22.138,0.906,29.388-12.299c0,0,4.013,10.098,14.759,6.861c0,0,25.633-8.416,31.978-22.914c0,0,16.182,6.86,23.172-8.286
				c6.992-15.147,7.899-17.478,8.805-23.303c0,0,10.875,4.92,15.406-1.553c0,0,8.154-6.538,6.86-53.661c0,0,5.568,9.904,7.51-5.697
				c1.773-14.249-2.396-35.471-2.396-35.471l16.031-37.98c0,0-2.373-8.757-4.38-28.241c0,0-29.322-0.971-27.575,47.383l4.272,36.315
				c0,0-21.944,33.013-57.87,10.292c-35.925-22.721-72.304-26.022-114.379-18.837c0,0-38.255,8.156-35.343-37.092
				c2.914-45.246,21.362-62.529,21.362-62.529l-19.031-1.359C53.492,108.586,46.113,164.124,48.055,171.504"/>
		</defs>
		<clipPath id="SVGID_9_">
			<use xlink:href="#SVGID_8_"  overflow="visible"/>
		</clipPath>
		
			<linearGradient id="SVGID_10_" gradientUnits="userSpaceOnUse" x1="-442" y1="739.0039" x2="-441" y2="739.0039" gradientTransform="matrix(-1.090000e-005 -248.6617 -248.6617 1.090000e-005 183913.4531 -109551.2109)">
			<stop  offset="0" style="stop-color:#9D3E1A"/>
			<stop  offset="0.6557" style="stop-color:#9D3E1A"/>
			<stop  offset="1" style="stop-color:#933F15"/>
		</linearGradient>
		<rect x="16.207" y="108.586" clip-path="url(#SVGID_9_)" fill="url(#SVGID_10_)" width="270.229" height="249.277"/>
	</g>
	<g>
		<defs>
			<rect id="SVGID_11_" x="18.365" y="27.155" width="285.439" height="347.215"/>
		</defs>
		<clipPath id="SVGID_12_">
			<use xlink:href="#SVGID_11_"  overflow="visible"/>
		</clipPath>
		<path clip-path="url(#SVGID_12_)" fill="#9F2828" d="M155.361,37.205c0,5.55,4.499,10.049,10.05,10.049s10.05-4.499,10.05-10.049
			c0-5.551-4.499-10.05-10.05-10.05S155.361,31.654,155.361,37.205"/>
		<path clip-path="url(#SVGID_12_)" fill="#7C1D1D" d="M110.973,105.607c0,0,79.126,0.913,85.962,10.357v-14.241
			c0,0-52.82-15.534-75.087-10.356L110.973,105.607z"/>
		<path clip-path="url(#SVGID_12_)" fill="#9F2828" d="M134.988,90.33c0,0-11.62-0.519-12.202,5.946
			c-0.777,8.624,8.572,9.892,8.572,9.892s60.995,3.456,65.577,9.785v-14.24C196.935,101.713,160.104,90.887,134.988,90.33"/>
		<path clip-path="url(#SVGID_12_)" fill="#7C1D1D" d="M139.584,98.747c0,1.144,0.927,2.071,2.071,2.071s2.072-0.927,2.072-2.071
			s-0.928-2.072-2.072-2.072S139.584,97.603,139.584,98.747"/>
		<path clip-path="url(#SVGID_12_)" fill="#7C1D1D" d="M149.811,99.718c0,1.145,0.927,2.071,2.071,2.071
			c1.145,0,2.072-0.927,2.072-2.071c0-1.144-0.928-2.072-2.072-2.072C150.738,97.646,149.811,98.574,149.811,99.718"/>
		<path clip-path="url(#SVGID_12_)" fill="#7C1D1D" d="M161.269,100.819c0,1.144,0.927,2.071,2.071,2.071
			c1.144,0,2.07-0.927,2.07-2.071s-0.927-2.072-2.07-2.072C162.195,98.747,161.269,99.675,161.269,100.819"/>
		<path clip-path="url(#SVGID_12_)" fill="#7C1D1D" d="M171.949,102.372c0,1.145,0.927,2.071,2.07,2.071
			c1.145,0,2.071-0.927,2.071-2.071c0-1.144-0.927-2.072-2.071-2.072C172.876,100.3,171.949,101.229,171.949,102.372"/>
		<path clip-path="url(#SVGID_12_)" fill="#7C1D1D" d="M181.205,104.185c0,1.144,0.927,2.071,2.071,2.071s2.071-0.927,2.071-2.071
			s-0.927-2.072-2.071-2.072S181.205,103.041,181.205,104.185"/>
		<path clip-path="url(#SVGID_12_)" fill="#223744" d="M226.194,37.98l-115.221-9.272l-54.762,38.32l-5.048,51.847
			c0,0,27.995-9.698,66.527-11.081c4.642-21.834,22.42-37.105,41.433-34.743c19.03,2.363,32.536,21.556,31.668,43.888
			c22.863,7.135,79.225,7.861,95.644,45.714l-3.945-65.978L226.194,37.98z"/>
	</g>
	<g>
		<defs>
			<polygon id="SVGID_13_" points="74.465,120.885 74.465,129.688 114.006,128.135 115.375,119.331 			"/>
		</defs>
		<clipPath id="SVGID_14_">
			<use xlink:href="#SVGID_13_"  overflow="visible"/>
		</clipPath>
		
			<linearGradient id="SVGID_15_" gradientUnits="userSpaceOnUse" x1="-442.0005" y1="739" x2="-441.0005" y2="739" gradientTransform="matrix(40.91 0 0 -40.91 18156.6758 30356.9668)">
			<stop  offset="0" style="stop-color:#9D3E1A"/>
			<stop  offset="0.6557" style="stop-color:#9D3E1A"/>
			<stop  offset="1" style="stop-color:#933F15"/>
		</linearGradient>
		<rect x="74.465" y="119.331" clip-path="url(#SVGID_14_)" fill="url(#SVGID_15_)" width="40.91" height="10.357"/>
	</g>
	<g>
		<defs>
			<polygon id="SVGID_16_" points="180.105,136.42 219.461,147.553 223.345,138.102 183.278,128.652 			"/>
		</defs>
		<clipPath id="SVGID_17_">
			<use xlink:href="#SVGID_16_"  overflow="visible"/>
		</clipPath>
		
			<linearGradient id="SVGID_18_" gradientUnits="userSpaceOnUse" x1="-441.9995" y1="739" x2="-440.9995" y2="739" gradientTransform="matrix(43.2403 0 0 -43.2403 19292.293 32092.6523)">
			<stop  offset="0" style="stop-color:#9D3E1A"/>
			<stop  offset="0.6557" style="stop-color:#9D3E1A"/>
			<stop  offset="1" style="stop-color:#933F15"/>
		</linearGradient>
		<rect x="180.104" y="128.652" clip-path="url(#SVGID_17_)" fill="url(#SVGID_18_)" width="43.24" height="18.901"/>
	</g>
	<g>
		<defs>
			<rect id="SVGID_19_" x="18.365" y="27.155" width="285.439" height="347.215"/>
		</defs>
		<clipPath id="SVGID_20_">
			<use xlink:href="#SVGID_19_"  overflow="visible"/>
		</clipPath>
		<path clip-path="url(#SVGID_20_)" fill="#290E0B" d="M208.213,184.744c-0.011-0.079-0.625-7.654-3.522-15.409
			c-1.456-3.878-3.479-7.818-6.394-10.89c-2.897-3.069-6.795-5.251-11.644-5.315l-0.397-0.003
			c-4.579-0.007-8.196,1.272-10.923,3.268c-4.098,3.001-6.138,7.434-7.26,11.228c-0.561,1.903-0.891,3.666-1.116,5.045
			c-0.111,0.689-0.197,1.284-0.269,1.738c-0.066,0.445-0.139,0.79-0.147,0.799c-0.26,0.818,0.193,1.691,1.012,1.95
			c0.817,0.26,1.69-0.193,1.949-1.011c0.086-0.275,0.129-0.513,0.182-0.802c0.182-1.051,0.38-2.734,0.832-4.752
			c0.671-3.016,1.913-6.675,4.291-9.478c1.189-1.405,2.651-2.607,4.507-3.475c1.854-0.865,4.116-1.402,6.942-1.403l0.35,0.002
			c3.935,0.073,6.933,1.733,9.44,4.35c3.744,3.916,6.092,10.049,7.407,15.194c0.663,2.571,1.081,4.89,1.331,6.559
			c0.126,0.834,0.21,1.507,0.261,1.967c0.027,0.23,0.045,0.407,0.057,0.523l0.016,0.17c0.07,0.856,0.82,1.491,1.676,1.421
			C207.648,186.349,208.284,185.598,208.213,184.744"/>
		<path clip-path="url(#SVGID_20_)" fill="#290E0B" d="M101.035,231.719c0.008,0.12-0.011,6.042,2.764,12.153
			c1.391,3.052,3.508,6.168,6.729,8.523c3.217,2.36,7.524,3.902,13.054,3.896c0.214,0,0.43-0.003,0.648-0.006
			c6.615-0.138,11.926-1.589,16.134-3.763c6.319-3.257,10.104-8.107,12.285-12.336c1.094-2.118,1.794-4.084,2.229-5.654
			c0.217-0.784,0.368-1.469,0.468-2.032c0.1-0.567,0.15-0.984,0.161-1.337c0.023-0.859-0.654-1.572-1.511-1.596
			c-0.858-0.023-1.572,0.653-1.595,1.51c-0.001,0.122-0.058,0.665-0.213,1.383c-0.537,2.562-2.23,7.689-6.398,12.136
			c-4.179,4.446-10.777,8.338-21.625,8.582c-0.196,0.005-0.391,0.006-0.583,0.006c-4.967-0.006-8.533-1.34-11.22-3.298
			c-4.021-2.928-6.116-7.438-7.168-11.294c-0.526-1.922-0.791-3.662-0.922-4.912c-0.066-0.625-0.098-1.125-0.114-1.465
			c-0.008-0.17-0.012-0.3-0.014-0.384l-0.002-0.092v-0.02c0-0.859-0.695-1.554-1.553-1.554
			C101.73,230.166,101.035,230.86,101.035,231.719"/>
		<path clip-path="url(#SVGID_20_)" fill="#290E0B" d="M68.134,164.908l0.023-0.055c0.257-0.617,2.726-6.348,6.794-11.822
			c2.03-2.738,4.459-5.404,7.151-7.344c2.699-1.944,5.614-3.149,8.727-3.149c1.173,0,2.382,0.17,3.645,0.548
			c4.784,1.45,7.437,3.898,9.042,6.714c1.596,2.82,2.083,6.107,2.081,9.088c0,1.924-0.199,3.707-0.403,5.131
			c-0.102,0.713-0.205,1.336-0.286,1.856c-0.078,0.533-0.143,0.913-0.149,1.356c0,0.858,0.696,1.554,1.554,1.554
			c0.858,0,1.553-0.696,1.553-1.554c-0.005-0.014,0.035-0.398,0.113-0.881c0.231-1.5,0.725-4.264,0.725-7.462
			c-0.002-3.302-0.518-7.126-2.481-10.614c-1.955-3.492-5.416-6.547-10.856-8.164c-1.543-0.463-3.062-0.68-4.537-0.679
			c-4.067,0-7.718,1.632-10.839,3.952c-4.687,3.492-8.315,8.558-10.83,12.755c-2.508,4.2-3.88,7.542-3.901,7.591
			c-0.325,0.793,0.054,1.701,0.848,2.027C66.901,166.082,67.809,165.702,68.134,164.908"/>
	</g>
	<g>
		<defs>
			<path id="SVGID_21_" d="M105.208,184.871c0,0.697,0.869,1.264,1.941,1.264c1.073,0,1.943-0.567,1.943-1.264
				c0-0.698-0.87-1.263-1.943-1.263C106.077,183.608,105.208,184.173,105.208,184.871"/>
		</defs>
		<clipPath id="SVGID_22_">
			<use xlink:href="#SVGID_21_"  overflow="visible"/>
		</clipPath>
		
			<linearGradient id="SVGID_23_" gradientUnits="userSpaceOnUse" x1="-442" y1="739.0273" x2="-441" y2="739.0273" gradientTransform="matrix(279.5443 0 0 -279.5443 123582.8516 206775.7656)">
			<stop  offset="0" style="stop-color:#E8B3A9"/>
			<stop  offset="0.4756" style="stop-color:#E8B3A9"/>
			<stop  offset="0.673" style="stop-color:#E9ADA2"/>
			<stop  offset="1" style="stop-color:#E9AA9F"/>
		</linearGradient>
		<rect x="105.208" y="183.608" clip-path="url(#SVGID_22_)" fill="url(#SVGID_23_)" width="3.884" height="2.527"/>
	</g>
	<g>
		<defs>
			<path id="SVGID_24_" d="M97.907,192.457c0,0.698,0.87,1.263,1.942,1.263c1.073,0,1.942-0.564,1.942-1.263
				c0-0.696-0.869-1.262-1.942-1.262C98.777,191.195,97.907,191.761,97.907,192.457"/>
		</defs>
		<clipPath id="SVGID_25_">
			<use xlink:href="#SVGID_24_"  overflow="visible"/>
		</clipPath>
		
			<linearGradient id="SVGID_26_" gradientUnits="userSpaceOnUse" x1="-442" y1="739" x2="-441" y2="739" gradientTransform="matrix(279.5443 0 0 -279.5443 123582.8516 206775.7656)">
			<stop  offset="0" style="stop-color:#E8B3A9"/>
			<stop  offset="0.4756" style="stop-color:#E8B3A9"/>
			<stop  offset="0.673" style="stop-color:#E9ADA2"/>
			<stop  offset="1" style="stop-color:#E9AA9F"/>
		</linearGradient>
		<rect x="97.907" y="191.195" clip-path="url(#SVGID_25_)" fill="url(#SVGID_26_)" width="3.884" height="2.524"/>
	</g>
	<g>
		<defs>
			<path id="SVGID_27_" d="M84.023,198.721c0,0.696,0.868,1.261,1.941,1.261c1.073,0,1.942-0.565,1.942-1.261
				c0-0.698-0.869-1.264-1.942-1.264C84.891,197.457,84.023,198.023,84.023,198.721"/>
		</defs>
		<clipPath id="SVGID_28_">
			<use xlink:href="#SVGID_27_"  overflow="visible"/>
		</clipPath>
		
			<linearGradient id="SVGID_29_" gradientUnits="userSpaceOnUse" x1="-442" y1="738.9766" x2="-441" y2="738.9766" gradientTransform="matrix(279.5443 0 0 -279.5443 123582.8516 206775.7656)">
			<stop  offset="0" style="stop-color:#E8B3A9"/>
			<stop  offset="0.4756" style="stop-color:#E8B3A9"/>
			<stop  offset="0.673" style="stop-color:#E9ADA2"/>
			<stop  offset="1" style="stop-color:#E9AA9F"/>
		</linearGradient>
		<rect x="84.023" y="197.457" clip-path="url(#SVGID_28_)" fill="url(#SVGID_29_)" width="3.883" height="2.525"/>
	</g>
	<g>
		<defs>
			<path id="SVGID_30_" d="M82.76,191.438c0,0.698,0.87,1.263,1.942,1.263c1.073,0,1.943-0.565,1.943-1.263
				c0-0.697-0.87-1.262-1.943-1.262C83.63,190.176,82.76,190.741,82.76,191.438"/>
		</defs>
		<clipPath id="SVGID_31_">
			<use xlink:href="#SVGID_30_"  overflow="visible"/>
		</clipPath>
		
			<linearGradient id="SVGID_32_" gradientUnits="userSpaceOnUse" x1="-442" y1="739.0029" x2="-441" y2="739.0029" gradientTransform="matrix(279.5443 0 0 -279.5443 123582.8516 206775.7656)">
			<stop  offset="0" style="stop-color:#E8B3A9"/>
			<stop  offset="0.4756" style="stop-color:#E8B3A9"/>
			<stop  offset="0.673" style="stop-color:#E9ADA2"/>
			<stop  offset="1" style="stop-color:#E9AA9F"/>
		</linearGradient>
		<rect x="82.76" y="190.176" clip-path="url(#SVGID_31_)" fill="url(#SVGID_32_)" width="3.885" height="2.525"/>
	</g>
	<g>
		<defs>
			<path id="SVGID_33_" d="M74.022,191.972c0,0.697,0.87,1.262,1.942,1.262c1.072,0,1.942-0.565,1.942-1.262
				c0-0.698-0.87-1.263-1.942-1.263C74.892,190.709,74.022,191.274,74.022,191.972"/>
		</defs>
		<clipPath id="SVGID_34_">
			<use xlink:href="#SVGID_33_"  overflow="visible"/>
		</clipPath>
		
			<linearGradient id="SVGID_35_" gradientUnits="userSpaceOnUse" x1="-442" y1="739.002" x2="-441" y2="739.002" gradientTransform="matrix(279.5443 0 0 -279.5443 123582.8516 206775.7656)">
			<stop  offset="0" style="stop-color:#E8B3A9"/>
			<stop  offset="0.4756" style="stop-color:#E8B3A9"/>
			<stop  offset="0.673" style="stop-color:#E9ADA2"/>
			<stop  offset="1" style="stop-color:#E9AA9F"/>
		</linearGradient>
		<rect x="74.022" y="190.709" clip-path="url(#SVGID_34_)" fill="url(#SVGID_35_)" width="3.884" height="2.525"/>
	</g>
	<g>
		<defs>
			<path id="SVGID_36_" d="M69.069,200.905c0,0.698,0.87,1.261,1.943,1.261c1.072,0,1.942-0.563,1.942-1.261
				c0-0.697-0.87-1.263-1.942-1.263C69.939,199.642,69.069,200.208,69.069,200.905"/>
		</defs>
		<clipPath id="SVGID_37_">
			<use xlink:href="#SVGID_36_"  overflow="visible"/>
		</clipPath>
		
			<linearGradient id="SVGID_38_" gradientUnits="userSpaceOnUse" x1="-442" y1="738.9688" x2="-441" y2="738.9688" gradientTransform="matrix(279.5443 0 0 -279.5443 123582.8516 206775.7656)">
			<stop  offset="0" style="stop-color:#E8B3A9"/>
			<stop  offset="0.4756" style="stop-color:#E8B3A9"/>
			<stop  offset="0.673" style="stop-color:#E9ADA2"/>
			<stop  offset="1" style="stop-color:#E9AA9F"/>
		</linearGradient>
		<rect x="69.069" y="199.642" clip-path="url(#SVGID_37_)" fill="url(#SVGID_38_)" width="3.885" height="2.524"/>
	</g>
	<g>
		<defs>
			<path id="SVGID_39_" d="M104.655,201.246c0,0.695,0.87,1.26,1.943,1.26c1.072,0,1.941-0.565,1.941-1.26
				c0-0.698-0.869-1.264-1.941-1.264C105.525,199.982,104.655,200.548,104.655,201.246"/>
		</defs>
		<clipPath id="SVGID_40_">
			<use xlink:href="#SVGID_39_"  overflow="visible"/>
		</clipPath>
		
			<linearGradient id="SVGID_41_" gradientUnits="userSpaceOnUse" x1="-442" y1="738.9688" x2="-441" y2="738.9688" gradientTransform="matrix(279.5443 0 0 -279.5443 123582.8516 206775.7656)">
			<stop  offset="0" style="stop-color:#E8B3A9"/>
			<stop  offset="0.4756" style="stop-color:#E8B3A9"/>
			<stop  offset="0.673" style="stop-color:#E9ADA2"/>
			<stop  offset="1" style="stop-color:#E9AA9F"/>
		</linearGradient>
		<rect x="104.655" y="199.982" clip-path="url(#SVGID_40_)" fill="url(#SVGID_41_)" width="3.884" height="2.524"/>
	</g>
	<g>
		<defs>
			<path id="SVGID_42_" d="M107.149,193.72c0,0.697,0.87,1.262,1.943,1.262c1.072,0,1.942-0.565,1.942-1.262
				c0-0.698-0.87-1.263-1.942-1.263C108.019,192.457,107.149,193.022,107.149,193.72"/>
		</defs>
		<clipPath id="SVGID_43_">
			<use xlink:href="#SVGID_42_"  overflow="visible"/>
		</clipPath>
		
			<linearGradient id="SVGID_44_" gradientUnits="userSpaceOnUse" x1="-442" y1="738.9941" x2="-441" y2="738.9941" gradientTransform="matrix(279.5443 0 0 -279.5443 123582.8516 206775.7656)">
			<stop  offset="0" style="stop-color:#E8B3A9"/>
			<stop  offset="0.4756" style="stop-color:#E8B3A9"/>
			<stop  offset="0.673" style="stop-color:#E9ADA2"/>
			<stop  offset="1" style="stop-color:#E9AA9F"/>
		</linearGradient>
		<rect x="107.149" y="192.457" clip-path="url(#SVGID_43_)" fill="url(#SVGID_44_)" width="3.885" height="2.525"/>
	</g>
	<g>
		<defs>
			<path id="SVGID_45_" d="M61.223,192.457c0,0.698,0.87,1.263,1.942,1.263c1.073,0,1.942-0.564,1.942-1.263
				c0-0.696-0.869-1.262-1.942-1.262C62.093,191.195,61.223,191.761,61.223,192.457"/>
		</defs>
		<clipPath id="SVGID_46_">
			<use xlink:href="#SVGID_45_"  overflow="visible"/>
		</clipPath>
		
			<linearGradient id="SVGID_47_" gradientUnits="userSpaceOnUse" x1="-442" y1="739" x2="-441" y2="739" gradientTransform="matrix(279.5443 0 0 -279.5443 123582.8516 206775.7656)">
			<stop  offset="0" style="stop-color:#E8B3A9"/>
			<stop  offset="0.4756" style="stop-color:#E8B3A9"/>
			<stop  offset="0.673" style="stop-color:#E9ADA2"/>
			<stop  offset="1" style="stop-color:#E9AA9F"/>
		</linearGradient>
		<rect x="61.223" y="191.195" clip-path="url(#SVGID_46_)" fill="url(#SVGID_47_)" width="3.884" height="2.524"/>
	</g>
	<g>
		<defs>
			<path id="SVGID_48_" d="M89.867,185.564c0,0.697,0.869,1.262,1.942,1.262c1.072,0,1.941-0.565,1.941-1.262
				c0-0.698-0.869-1.263-1.941-1.263C90.736,184.301,89.867,184.866,89.867,185.564"/>
		</defs>
		<clipPath id="SVGID_49_">
			<use xlink:href="#SVGID_48_"  overflow="visible"/>
		</clipPath>
		
			<linearGradient id="SVGID_50_" gradientUnits="userSpaceOnUse" x1="-442" y1="739.0234" x2="-441" y2="739.0234" gradientTransform="matrix(279.5443 0 0 -279.5443 123582.8516 206775.7656)">
			<stop  offset="0" style="stop-color:#E8B3A9"/>
			<stop  offset="0.4756" style="stop-color:#E8B3A9"/>
			<stop  offset="0.673" style="stop-color:#E9ADA2"/>
			<stop  offset="1" style="stop-color:#E9AA9F"/>
		</linearGradient>
		<rect x="89.867" y="184.301" clip-path="url(#SVGID_49_)" fill="url(#SVGID_50_)" width="3.883" height="2.525"/>
	</g>
	<g>
		<defs>
			<path id="SVGID_51_" d="M144.665,183.039c0,0.698,0.869,1.262,1.942,1.262c1.073,0,1.941-0.564,1.941-1.262
				c0-0.697-0.868-1.262-1.941-1.262C145.534,181.777,144.665,182.342,144.665,183.039"/>
		</defs>
		<clipPath id="SVGID_52_">
			<use xlink:href="#SVGID_51_"  overflow="visible"/>
		</clipPath>
		
			<linearGradient id="SVGID_53_" gradientUnits="userSpaceOnUse" x1="-442" y1="739.0332" x2="-441" y2="739.0332" gradientTransform="matrix(279.5443 0 0 -279.5443 123582.8516 206775.7656)">
			<stop  offset="0" style="stop-color:#E8B3A9"/>
			<stop  offset="0.4756" style="stop-color:#E8B3A9"/>
			<stop  offset="0.673" style="stop-color:#E9ADA2"/>
			<stop  offset="1" style="stop-color:#E9AA9F"/>
		</linearGradient>
		<rect x="144.665" y="181.777" clip-path="url(#SVGID_52_)" fill="url(#SVGID_53_)" width="3.883" height="2.524"/>
	</g>
	<g>
		<defs>
			<path id="SVGID_54_" d="M144.665,192.457c0,0.698,0.869,1.263,1.942,1.263c1.073,0,1.941-0.564,1.941-1.263
				c0-0.696-0.868-1.262-1.941-1.262C145.534,191.195,144.665,191.761,144.665,192.457"/>
		</defs>
		<clipPath id="SVGID_55_">
			<use xlink:href="#SVGID_54_"  overflow="visible"/>
		</clipPath>
		
			<linearGradient id="SVGID_56_" gradientUnits="userSpaceOnUse" x1="-442" y1="739" x2="-441" y2="739" gradientTransform="matrix(279.5443 0 0 -279.5443 123582.8516 206775.7656)">
			<stop  offset="0" style="stop-color:#E8B3A9"/>
			<stop  offset="0.4756" style="stop-color:#E8B3A9"/>
			<stop  offset="0.673" style="stop-color:#E9ADA2"/>
			<stop  offset="1" style="stop-color:#E9AA9F"/>
		</linearGradient>
		<rect x="144.665" y="191.195" clip-path="url(#SVGID_55_)" fill="url(#SVGID_56_)" width="3.883" height="2.524"/>
	</g>
	<g>
		<defs>
			<path id="SVGID_57_" d="M151.462,198.174c0,0.697,0.869,1.263,1.942,1.263c1.071,0,1.94-0.566,1.94-1.263
				c0-0.696-0.869-1.261-1.94-1.261C152.331,196.913,151.462,197.478,151.462,198.174"/>
		</defs>
		<clipPath id="SVGID_58_">
			<use xlink:href="#SVGID_57_"  overflow="visible"/>
		</clipPath>
		
			<linearGradient id="SVGID_59_" gradientUnits="userSpaceOnUse" x1="-442" y1="738.9785" x2="-441" y2="738.9785" gradientTransform="matrix(279.5443 0 0 -279.5443 123582.8516 206775.7656)">
			<stop  offset="0" style="stop-color:#E8B3A9"/>
			<stop  offset="0.4756" style="stop-color:#E8B3A9"/>
			<stop  offset="0.673" style="stop-color:#E9ADA2"/>
			<stop  offset="1" style="stop-color:#E9AA9F"/>
		</linearGradient>
		<rect x="151.462" y="196.913" clip-path="url(#SVGID_58_)" fill="url(#SVGID_59_)" width="3.883" height="2.524"/>
	</g>
	<g>
		<defs>
			<path id="SVGID_60_" d="M144.665,201.669c0,0.698,0.869,1.263,1.942,1.263c1.073,0,1.941-0.565,1.941-1.263
				c0-0.695-0.868-1.261-1.941-1.261C145.534,200.408,144.665,200.974,144.665,201.669"/>
		</defs>
		<clipPath id="SVGID_61_">
			<use xlink:href="#SVGID_60_"  overflow="visible"/>
		</clipPath>
		
			<linearGradient id="SVGID_62_" gradientUnits="userSpaceOnUse" x1="-442" y1="738.9668" x2="-441" y2="738.9668" gradientTransform="matrix(279.5443 0 0 -279.5443 123582.8516 206775.7656)">
			<stop  offset="0" style="stop-color:#E8B3A9"/>
			<stop  offset="0.4756" style="stop-color:#E8B3A9"/>
			<stop  offset="0.673" style="stop-color:#E9ADA2"/>
			<stop  offset="1" style="stop-color:#E9AA9F"/>
		</linearGradient>
		<rect x="144.665" y="200.408" clip-path="url(#SVGID_61_)" fill="url(#SVGID_62_)" width="3.883" height="2.524"/>
	</g>
	<g>
		<defs>
			<path id="SVGID_63_" d="M156.026,185.564c0,0.697,0.867,1.262,1.94,1.262s1.942-0.565,1.942-1.262
				c0-0.698-0.869-1.263-1.942-1.263S156.026,184.866,156.026,185.564"/>
		</defs>
		<clipPath id="SVGID_64_">
			<use xlink:href="#SVGID_63_"  overflow="visible"/>
		</clipPath>
		
			<linearGradient id="SVGID_65_" gradientUnits="userSpaceOnUse" x1="-442" y1="739.0234" x2="-441" y2="739.0234" gradientTransform="matrix(279.5443 0 0 -279.5443 123582.8516 206775.7656)">
			<stop  offset="0" style="stop-color:#E8B3A9"/>
			<stop  offset="0.4756" style="stop-color:#E8B3A9"/>
			<stop  offset="0.673" style="stop-color:#E9ADA2"/>
			<stop  offset="1" style="stop-color:#E9AA9F"/>
		</linearGradient>
		<rect x="156.026" y="184.301" clip-path="url(#SVGID_64_)" fill="url(#SVGID_65_)" width="3.883" height="2.525"/>
	</g>
	<g>
		<defs>
			<path id="SVGID_66_" d="M168.021,202.166c0,0.698,0.869,1.264,1.942,1.264s1.941-0.566,1.941-1.264
				c0-0.695-0.868-1.261-1.941-1.261S168.021,201.471,168.021,202.166"/>
		</defs>
		<clipPath id="SVGID_67_">
			<use xlink:href="#SVGID_66_"  overflow="visible"/>
		</clipPath>
		
			<linearGradient id="SVGID_68_" gradientUnits="userSpaceOnUse" x1="-442" y1="738.9648" x2="-441" y2="738.9648" gradientTransform="matrix(279.5443 0 0 -279.5443 123582.8516 206775.7656)">
			<stop  offset="0" style="stop-color:#E8B3A9"/>
			<stop  offset="0.4756" style="stop-color:#E8B3A9"/>
			<stop  offset="0.673" style="stop-color:#E9ADA2"/>
			<stop  offset="1" style="stop-color:#E9AA9F"/>
		</linearGradient>
		<rect x="168.021" y="200.905" clip-path="url(#SVGID_67_)" fill="url(#SVGID_68_)" width="3.884" height="2.525"/>
	</g>
	<g>
		<defs>
			<path id="SVGID_69_" d="M169.424,190.709c0,0.698,0.869,1.263,1.942,1.263s1.941-0.565,1.941-1.263
				c0-0.696-0.868-1.262-1.941-1.262S169.424,190.013,169.424,190.709"/>
		</defs>
		<clipPath id="SVGID_70_">
			<use xlink:href="#SVGID_69_"  overflow="visible"/>
		</clipPath>
		
			<linearGradient id="SVGID_71_" gradientUnits="userSpaceOnUse" x1="-442" y1="739.0059" x2="-441" y2="739.0059" gradientTransform="matrix(279.5443 0 0 -279.5443 123582.8516 206775.7656)">
			<stop  offset="0" style="stop-color:#E8B3A9"/>
			<stop  offset="0.4756" style="stop-color:#E8B3A9"/>
			<stop  offset="0.673" style="stop-color:#E9ADA2"/>
			<stop  offset="1" style="stop-color:#E9AA9F"/>
		</linearGradient>
		<rect x="169.424" y="189.447" clip-path="url(#SVGID_70_)" fill="url(#SVGID_71_)" width="3.884" height="2.525"/>
	</g>
	<g>
		<defs>
			<path id="SVGID_72_" d="M181.854,204.691c0,0.697,0.867,1.263,1.941,1.263c1.072,0,1.942-0.566,1.942-1.263
				c0-0.696-0.87-1.261-1.942-1.261C182.721,203.43,181.854,203.995,181.854,204.691"/>
		</defs>
		<clipPath id="SVGID_73_">
			<use xlink:href="#SVGID_72_"  overflow="visible"/>
		</clipPath>
		
			<linearGradient id="SVGID_74_" gradientUnits="userSpaceOnUse" x1="-442" y1="738.9551" x2="-441" y2="738.9551" gradientTransform="matrix(279.5443 0 0 -279.5443 123582.8516 206775.7656)">
			<stop  offset="0" style="stop-color:#E8B3A9"/>
			<stop  offset="0.4756" style="stop-color:#E8B3A9"/>
			<stop  offset="0.673" style="stop-color:#E9ADA2"/>
			<stop  offset="1" style="stop-color:#E9AA9F"/>
		</linearGradient>
		<rect x="181.853" y="203.43" clip-path="url(#SVGID_73_)" fill="url(#SVGID_74_)" width="3.885" height="2.524"/>
	</g>
	<g>
		<defs>
			<path id="SVGID_75_" d="M181.854,211.799c0,0.697,0.867,1.261,1.941,1.261c1.072,0,1.942-0.564,1.942-1.261
				c0-0.698-0.87-1.262-1.942-1.262C182.721,210.537,181.854,211.101,181.854,211.799"/>
		</defs>
		<clipPath id="SVGID_76_">
			<use xlink:href="#SVGID_75_"  overflow="visible"/>
		</clipPath>
		
			<linearGradient id="SVGID_77_" gradientUnits="userSpaceOnUse" x1="-442" y1="738.9297" x2="-441" y2="738.9297" gradientTransform="matrix(279.5443 0 0 -279.5443 123582.8516 206775.7656)">
			<stop  offset="0" style="stop-color:#E8B3A9"/>
			<stop  offset="0.4756" style="stop-color:#E8B3A9"/>
			<stop  offset="0.673" style="stop-color:#E9ADA2"/>
			<stop  offset="1" style="stop-color:#E9AA9F"/>
		</linearGradient>
		<rect x="181.853" y="210.537" clip-path="url(#SVGID_76_)" fill="url(#SVGID_77_)" width="3.885" height="2.523"/>
	</g>
	<g>
		<defs>
			<path id="SVGID_78_" d="M183.795,196.244c0,0.698,0.869,1.262,1.942,1.262c1.07,0,1.941-0.564,1.941-1.262
				c0-0.697-0.871-1.262-1.941-1.262C184.664,194.982,183.795,195.547,183.795,196.244"/>
		</defs>
		<clipPath id="SVGID_79_">
			<use xlink:href="#SVGID_78_"  overflow="visible"/>
		</clipPath>
		
			<linearGradient id="SVGID_80_" gradientUnits="userSpaceOnUse" x1="-442" y1="738.9863" x2="-441" y2="738.9863" gradientTransform="matrix(279.5443 0 0 -279.5443 123582.8516 206775.7656)">
			<stop  offset="0" style="stop-color:#E8B3A9"/>
			<stop  offset="0.4756" style="stop-color:#E8B3A9"/>
			<stop  offset="0.673" style="stop-color:#E9ADA2"/>
			<stop  offset="1" style="stop-color:#E9AA9F"/>
		</linearGradient>
		<rect x="183.795" y="194.982" clip-path="url(#SVGID_79_)" fill="url(#SVGID_80_)" width="3.884" height="2.524"/>
	</g>
	<g>
		<defs>
			<path id="SVGID_81_" d="M192.047,210.537c0,0.696,0.871,1.262,1.943,1.262s1.94-0.566,1.94-1.262c0-0.697-0.868-1.263-1.94-1.263
				S192.047,209.84,192.047,210.537"/>
		</defs>
		<clipPath id="SVGID_82_">
			<use xlink:href="#SVGID_81_"  overflow="visible"/>
		</clipPath>
		
			<linearGradient id="SVGID_83_" gradientUnits="userSpaceOnUse" x1="-442" y1="738.9355" x2="-441" y2="738.9355" gradientTransform="matrix(279.5443 0 0 -279.5443 123582.8516 206775.7656)">
			<stop  offset="0" style="stop-color:#E8B3A9"/>
			<stop  offset="0.4756" style="stop-color:#E8B3A9"/>
			<stop  offset="0.673" style="stop-color:#E9ADA2"/>
			<stop  offset="1" style="stop-color:#E9AA9F"/>
		</linearGradient>
		<rect x="192.047" y="209.274" clip-path="url(#SVGID_82_)" fill="url(#SVGID_83_)" width="3.884" height="2.525"/>
	</g>
</g>
</svg>
